<?xml version="1.0" encoding="UTF-8"?>
<!DOCTYPE svg PUBLIC "-//W3C//DTD SVG 1.1//EN" "http://www.w3.org/Graphics/SVG/1.1/DTD/svg11.dtd">
<svg xmlns="http://www.w3.org/2000/svg" version="1.1" width="600px" height="600px" style="shape-rendering:geometricPrecision; text-rendering:geometricPrecision; image-rendering:optimizeQuality; fill-rule:evenodd; clip-rule:evenodd" xmlns:xlink="http://www.w3.org/1999/xlink">
<g><path style="opacity:1" fill="#fefefe" d="M -0.5,-0.5 C 199.5,-0.5 399.5,-0.5 599.5,-0.5C 599.5,199.5 599.5,399.5 599.5,599.5C 399.5,599.5 199.5,599.5 -0.5,599.5C -0.5,399.5 -0.5,199.5 -0.5,-0.5 Z"/></g>
<g><path style="opacity:1" fill="#beaf87" d="M 341.5,74.5 C 336.269,74.4443 331.269,75.111 326.5,76.5C 252.884,88.3199 197.384,126.32 160,190.5C 146.387,214.839 137.887,240.839 134.5,268.5C 133.111,273.269 132.444,278.269 132.5,283.5C 129.661,371.659 164.328,440.492 236.5,490C 292.979,524.27 353.312,533.27 417.5,517C 441.839,509.996 464.506,499.496 485.5,485.5C 494.521,497.029 503.188,508.862 511.5,521C 443.143,566.562 368.81,579.895 288.5,561C 197.746,533.913 135.58,476.08 102,387.5C 90.373,351.356 85.873,314.356 88.5,276.5C 89.889,271.731 90.5557,266.731 90.5,261.5C 104.915,173.956 150.249,107.789 226.5,63C 255.308,47.1194 285.975,36.9528 318.5,32.5C 323.731,32.5557 328.731,31.889 333.5,30.5C 389.723,25.977 442.39,37.477 491.5,65C 496.377,67.9322 501.043,71.0988 505.5,74.5C 497.167,86.5 488.833,98.5 480.5,110.5C 438.042,83.9678 391.708,71.9678 341.5,74.5 Z"/></g>
<g><path style="opacity:1" fill="#cfc3a6" d="M 333.5,30.5 C 328.731,31.889 323.731,32.5557 318.5,32.5C 323.269,31.111 328.269,30.4443 333.5,30.5 Z"/></g>
<g><path style="opacity:1" fill="#ebe6da" d="M 341.5,74.5 C 336.731,75.889 331.731,76.5557 326.5,76.5C 331.269,75.111 336.269,74.4443 341.5,74.5 Z"/></g>
<g><path style="opacity:1" fill="#beaf87" d="M 318.5,369.5 C 317.833,369.5 317.5,369.833 317.5,370.5C 316.957,370.56 316.624,370.893 316.5,371.5C 340.33,372.167 363.997,372.833 387.5,373.5C 377.833,387.5 368.167,401.5 358.5,415.5C 316.663,415.832 274.997,415.499 233.5,414.5C 262.743,371.688 292.243,329.021 322,286.5C 329.417,276.831 334.251,265.997 336.5,254C 334.822,239.49 326.822,230.99 312.5,228.5C 310.527,227.837 308.361,227.504 306,227.5C 302.523,227.328 299.356,227.994 296.5,229.5C 286.926,233.409 280.926,240.409 278.5,250.5C 277.527,252.948 277.194,255.615 277.5,258.5C 262.833,258.5 248.167,258.5 233.5,258.5C 234.405,224.522 250.405,200.689 281.5,187C 314.226,177.577 342.059,185.41 365,210.5C 383.382,236.891 385.382,264.557 371,293.5C 353.67,318.989 336.17,344.322 318.5,369.5 Z"/></g>
<g><path style="opacity:1" fill="#beaf87" d="M 430.5,183.5 C 447.833,183.5 465.167,183.5 482.5,183.5C 482.5,260.833 482.5,338.167 482.5,415.5C 467.833,415.5 453.167,415.5 438.5,415.5C 438.5,352.833 438.5,290.167 438.5,227.5C 425.656,227.829 412.989,227.495 400.5,226.5C 410.266,211.955 420.266,197.621 430.5,183.5 Z"/></g>
<g><path style="opacity:1" fill="#dcd5c0" d="M 430.5,183.5 C 447.992,182.503 465.659,182.17 483.5,182.5C 483.5,260.5 483.5,338.5 483.5,416.5C 468.5,416.5 453.5,416.5 438.5,416.5C 438.5,416.167 438.5,415.833 438.5,415.5C 453.167,415.5 467.833,415.5 482.5,415.5C 482.5,338.167 482.5,260.833 482.5,183.5C 465.167,183.5 447.833,183.5 430.5,183.5 Z"/></g>
<g><path style="opacity:1" fill="#ede9df" d="M 312.5,228.5 C 307.13,228.392 301.797,228.725 296.5,229.5C 299.356,227.994 302.523,227.328 306,227.5C 308.361,227.504 310.527,227.837 312.5,228.5 Z"/></g>
<g><path style="opacity:1" fill="#f3f0ea" d="M 400.5,226.5 C 412.989,227.495 425.656,227.829 438.5,227.5C 438.5,290.167 438.5,352.833 438.5,415.5C 438.5,415.833 438.5,416.167 438.5,416.5C 437.501,354.002 437.168,291.336 437.5,228.5C 424.816,228.832 412.149,228.499 399.5,227.5C 399.624,226.893 399.957,226.56 400.5,226.5 Z"/></g>
<g><path style="opacity:1" fill="#cec3a5" d="M 278.5,250.5 C 278.5,253.5 278.5,256.5 278.5,259.5C 263.324,259.829 248.324,259.496 233.5,258.5C 248.167,258.5 262.833,258.5 277.5,258.5C 277.194,255.615 277.527,252.948 278.5,250.5 Z"/></g>
<g><path style="opacity:1" fill="#d0c6a9" d="M 90.5,261.5 C 90.5557,266.731 89.889,271.731 88.5,276.5C 88.4443,271.269 89.111,266.269 90.5,261.5 Z"/></g>
<g><path style="opacity:1" fill="#e6e0d1" d="M 134.5,268.5 C 134.556,273.731 133.889,278.731 132.5,283.5C 132.444,278.269 133.111,273.269 134.5,268.5 Z"/></g>
<g><path style="opacity:1" fill="#f6f5f0" d="M 318.5,369.5 C 341.833,370.167 365.167,370.833 388.5,371.5C 364.661,371.831 340.994,371.498 317.5,370.5C 317.5,369.833 317.833,369.5 318.5,369.5 Z"/></g>
<g><path style="opacity:1" fill="#c7ba98" d="M 317.5,370.5 C 340.994,371.498 364.661,371.831 388.5,371.5C 388.672,372.492 388.338,373.158 387.5,373.5C 363.997,372.833 340.33,372.167 316.5,371.5C 316.624,370.893 316.957,370.56 317.5,370.5 Z"/></g>
<g><path style="opacity:1" fill="#d8cfb7" d="M 495.5,406.5 C 502.057,407.395 502.057,408.395 495.5,409.5C 496.736,410.357 498.069,411.023 499.5,411.5C 500.747,413.006 500.747,414.506 499.5,416C 493.767,416.138 493.433,415.304 498.5,413.5C 494.637,412.374 493.637,410.041 495.5,406.5 Z"/></g>
<g><path style="opacity:1" fill="#d1c7ac" d="M 502.5,407.5 C 504.257,408.292 505.591,409.625 506.5,411.5C 507.5,410.167 508.5,408.833 509.5,407.5C 510.652,410.106 510.818,412.773 510,415.5C 509.667,413.833 509.333,412.167 509,410.5C 507.365,417.132 505.698,417.132 504,410.5C 503.667,412.167 503.333,413.833 503,415.5C 502.503,412.854 502.336,410.187 502.5,407.5 Z"/></g>
<g><path style="opacity:1" fill="#d6ccb3" d="M 233.5,414.5 C 274.997,415.499 316.663,415.832 358.5,415.5C 316.665,416.831 274.665,416.831 232.5,415.5C 232.624,414.893 232.957,414.56 233.5,414.5 Z"/></g>
</svg>
